<svg width="18" height="24" viewBox="0 0 18 24" fill="none" xmlns="http://www.w3.org/2000/svg">
<path d="M15.2505 0H2.751C1.233 0 0 1.233 0 2.7495V21.249C0 22.767 1.233 24 2.7495 24H15.249C16.767 24 18 22.767 18 21.2505V2.7495C18 1.233 16.767 0 15.2505 0ZM4.0005 4.9995H9.2505C9.8025 4.9995 10.251 5.448 10.251 6C10.251 6.552 9.8025 7.0005 9.2505 7.0005H4.0005C3.447 7.0005 3 6.552 3 6C3 5.448 3.447 4.9995 4.0005 4.9995ZM13.9995 19.0005H3.999C3.447 19.0005 3 18.552 3 18C3 17.448 3.4485 16.9995 4.0005 16.9995H14.001C14.553 16.9995 15 17.448 15 18C15 18.552 14.553 19.0005 13.9995 19.0005ZM13.9995 15H3.999C3.447 15 3 14.553 3 13.9995C3 13.446 3.4485 12.999 4.0005 12.999H14.001C14.553 12.999 15.0015 13.4475 15.0015 13.9995C15.0015 14.5515 14.553 15 13.9995 15ZM13.9995 10.9995H3.999C3.447 10.9995 2.9985 10.551 2.9985 9.999C2.9985 9.447 3.447 9 4.0005 9H14.001C14.553 9 15 9.447 15 10.0005C15 10.554 14.553 10.9995 13.9995 10.9995Z" fill="#6A7EB9"/>
</svg>
