<svg width="26" height="26" viewBox="0 0 26 26" fill="none" xmlns="http://www.w3.org/2000/svg">
<path d="M17.16 24.1042H8.83999C8.00758 24.0922 7.21039 23.7664 6.60783 23.1919C6.00528 22.6175 5.64177 21.8368 5.58999 21.0059L4.60416 6.01254C4.59911 5.90384 4.61565 5.79521 4.65284 5.69293C4.69003 5.59066 4.74713 5.49678 4.82083 5.41671C4.89675 5.33373 4.98868 5.26696 5.09107 5.22042C5.19347 5.17387 5.30422 5.14852 5.41666 5.14588H20.5833C20.6947 5.14563 20.805 5.1683 20.9073 5.21247C21.0096 5.25665 21.1017 5.32139 21.1779 5.40267C21.2541 5.48395 21.3128 5.58004 21.3502 5.68495C21.3877 5.78987 21.4033 5.90138 21.3958 6.01254L20.4533 21.0059C20.401 21.8442 20.0314 22.6311 19.4196 23.2066C18.8079 23.7821 17.9999 24.1031 17.16 24.1042ZM6.32666 6.77088L7.16083 20.9084C7.18839 21.3347 7.37739 21.7345 7.68936 22.0263C8.00133 22.3181 8.4128 22.4801 8.83999 22.4792H17.16C17.5864 22.4775 17.9965 22.3147 18.3079 22.0234C18.6193 21.7321 18.8091 21.3338 18.8392 20.9084L19.7167 6.82504L6.32666 6.77088Z" fill="#6A7EB9"/>
<path d="M22.75 6.77087H3.25C3.03451 6.77087 2.82785 6.68527 2.67548 6.5329C2.5231 6.38053 2.4375 6.17386 2.4375 5.95837C2.4375 5.74289 2.5231 5.53622 2.67548 5.38385C2.82785 5.23148 3.03451 5.14587 3.25 5.14587H22.75C22.9655 5.14587 23.1722 5.23148 23.3245 5.38385C23.4769 5.53622 23.5625 5.74289 23.5625 5.95837C23.5625 6.17386 23.4769 6.38053 23.3245 6.5329C23.1722 6.68527 22.9655 6.77087 22.75 6.77087Z" fill="#6A7EB9"/>
<path d="M16.25 6.77087H9.75C9.53538 6.76807 9.33035 6.68157 9.17858 6.5298C9.02681 6.37803 8.94031 6.17299 8.9375 5.95837V4.00837C8.95123 3.45243 9.17821 2.92305 9.57144 2.52982C9.96467 2.13658 10.4941 1.90961 11.05 1.89587H14.95C15.5152 1.91001 16.0525 2.14451 16.4472 2.54931C16.8419 2.95412 17.0627 3.49717 17.0625 4.06254V5.95837C17.0597 6.17299 16.9732 6.37803 16.8214 6.5298C16.6697 6.68157 16.4646 6.76807 16.25 6.77087ZM10.5625 5.14587H15.4375V4.06254C15.4375 3.93325 15.3861 3.80925 15.2947 3.71783C15.2033 3.6264 15.0793 3.57504 14.95 3.57504H11.05C10.9207 3.57504 10.7967 3.6264 10.7053 3.71783C10.6139 3.80925 10.5625 3.93325 10.5625 4.06254V5.14587Z" fill="#6A7EB9"/>
<path d="M16.25 19.7708C16.0354 19.768 15.8303 19.6815 15.6786 19.5297C15.5268 19.3779 15.4403 19.1729 15.4375 18.9583V10.2916C15.4375 10.0761 15.5231 9.86948 15.6755 9.7171C15.8278 9.56473 16.0345 9.47913 16.25 9.47913C16.4655 9.47913 16.6722 9.56473 16.8245 9.7171C16.9769 9.86948 17.0625 10.0761 17.0625 10.2916V18.9583C17.0597 19.1729 16.9732 19.3779 16.8214 19.5297C16.6697 19.6815 16.4646 19.768 16.25 19.7708Z" fill="#6A7EB9"/>
<path d="M9.75 19.7708C9.53538 19.768 9.33035 19.6815 9.17858 19.5297C9.02681 19.3779 8.94031 19.1729 8.9375 18.9583V10.2916C8.9375 10.0761 9.0231 9.86948 9.17548 9.7171C9.32785 9.56473 9.53451 9.47913 9.75 9.47913C9.96549 9.47913 10.1722 9.56473 10.3245 9.7171C10.4769 9.86948 10.5625 10.0761 10.5625 10.2916V18.9583C10.5597 19.1729 10.4732 19.3779 10.3214 19.5297C10.1697 19.6815 9.96462 19.768 9.75 19.7708Z" fill="#6A7EB9"/>
<path d="M13 19.7708C12.7854 19.768 12.5803 19.6815 12.4286 19.5297C12.2768 19.3779 12.1903 19.1729 12.1875 18.9583V10.2916C12.1875 10.0761 12.2731 9.86948 12.4255 9.7171C12.5778 9.56473 12.7845 9.47913 13 9.47913C13.2155 9.47913 13.4222 9.56473 13.5745 9.7171C13.7269 9.86948 13.8125 10.0761 13.8125 10.2916V18.9583C13.8097 19.1729 13.7232 19.3779 13.5714 19.5297C13.4197 19.6815 13.2146 19.768 13 19.7708Z" fill="#6A7EB9"/>
</svg>
