<svg width="22" height="22" viewBox="0 0 22 22" fill="none" xmlns="http://www.w3.org/2000/svg">
<path d="M19.1971 6.20573L19.1971 6.20565C19.197 6.20538 19.1968 6.20513 19.1966 6.20493C19.1964 6.2047 19.196 6.20453 19.1957 6.20445L19.1956 6.20444C19.1953 6.20437 19.195 6.20437 19.1947 6.20445C19.1944 6.20454 19.1941 6.20472 19.1937 6.20503L16.6041 8.79468L16.4116 8.98718L16.1454 8.92995L14.7532 8.63059L14.4373 8.56269L14.3694 8.24686L14.0701 6.85459L14.0129 6.58844L14.2054 6.39594L16.795 3.80626L17.1486 4.15981L16.795 3.80626C16.7955 3.80581 16.7957 3.80511 16.7956 3.80435L19.1971 6.20573ZM19.1971 6.20573C19.8287 7.79831 19.4543 9.60946 18.2433 10.8205L18.5968 11.174M19.1971 6.20573L18.5968 11.174M18.5968 11.174L18.2433 10.8205C17.6599 11.4039 16.9281 11.8038 16.1264 11.978L18.5968 11.174ZM12.1795 4.75671C13.3906 3.54575 15.2017 3.17131 16.7942 3.80277L14.0577 11.9189L13.7764 11.8405L13.5699 12.047L6.65891 18.958L6.6589 18.958C6.30876 19.3082 5.84566 19.5 5.35045 19.5C4.85522 19.5 4.39218 19.3082 4.04199 18.958L4.04197 18.958C3.6918 18.6079 3.5 18.1448 3.5 17.6496C3.5 17.1543 3.6918 16.6913 4.04199 16.3411L4.04202 16.3411L10.9531 9.43005L11.1596 9.22356L11.0811 8.94225C10.8937 8.26985 10.8727 7.56052 11.022 6.87362C11.1962 6.07194 11.5961 5.34013 12.1795 4.75671Z" stroke="#777777"/>
</svg>
