<svg width="14" height="15" viewBox="0 0 14 15" fill="none" xmlns="http://www.w3.org/2000/svg">
<path d="M1.125 15C0.825 15 0.5625 14.8875 0.3375 14.6625C0.1125 14.4375 0 14.175 0 13.875V2.25C0 1.95 0.1125 1.6875 0.3375 1.4625C0.5625 1.2375 0.825 1.125 1.125 1.125H2.34375V0H3.5625V1.125H9.9375V0H11.1562V1.125H12.375C12.675 1.125 12.9375 1.2375 13.1625 1.4625C13.3875 1.6875 13.5 1.95 13.5 2.25V13.875C13.5 14.175 13.3875 14.4375 13.1625 14.6625C12.9375 14.8875 12.675 15 12.375 15H1.125ZM1.125 13.875H12.375V5.8125H1.125V13.875ZM1.125 4.6875H12.375V2.25H1.125V4.6875ZM6.75 9C6.5375 9 6.35938 8.92813 6.21563 8.78438C6.07188 8.64062 6 8.4625 6 8.25C6 8.0375 6.07188 7.85938 6.21563 7.71563C6.35938 7.57188 6.5375 7.5 6.75 7.5C6.9625 7.5 7.14063 7.57188 7.28438 7.71563C7.42813 7.85938 7.5 8.0375 7.5 8.25C7.5 8.4625 7.42813 8.64062 7.28438 8.78438C7.14063 8.92813 6.9625 9 6.75 9ZM3.75 9C3.5375 9 3.35938 8.92813 3.21563 8.78438C3.07188 8.64062 3 8.4625 3 8.25C3 8.0375 3.07188 7.85938 3.21563 7.71563C3.35938 7.57188 3.5375 7.5 3.75 7.5C3.9625 7.5 4.14062 7.57188 4.28438 7.71563C4.42813 7.85938 4.5 8.0375 4.5 8.25C4.5 8.4625 4.42813 8.64062 4.28438 8.78438C4.14062 8.92813 3.9625 9 3.75 9ZM9.75 9C9.5375 9 9.35938 8.92813 9.21563 8.78438C9.07188 8.64062 9 8.4625 9 8.25C9 8.0375 9.07188 7.85938 9.21563 7.71563C9.35938 7.57188 9.5375 7.5 9.75 7.5C9.9625 7.5 10.1406 7.57188 10.2844 7.71563C10.4281 7.85938 10.5 8.0375 10.5 8.25C10.5 8.4625 10.4281 8.64062 10.2844 8.78438C10.1406 8.92813 9.9625 9 9.75 9ZM6.75 12C6.5375 12 6.35938 11.9281 6.21563 11.7844C6.07188 11.6406 6 11.4625 6 11.25C6 11.0375 6.07188 10.8594 6.21563 10.7156C6.35938 10.5719 6.5375 10.5 6.75 10.5C6.9625 10.5 7.14063 10.5719 7.28438 10.7156C7.42813 10.8594 7.5 11.0375 7.5 11.25C7.5 11.4625 7.42813 11.6406 7.28438 11.7844C7.14063 11.9281 6.9625 12 6.75 12ZM3.75 12C3.5375 12 3.35938 11.9281 3.21563 11.7844C3.07188 11.6406 3 11.4625 3 11.25C3 11.0375 3.07188 10.8594 3.21563 10.7156C3.35938 10.5719 3.5375 10.5 3.75 10.5C3.9625 10.5 4.14062 10.5719 4.28438 10.7156C4.42813 10.8594 4.5 11.0375 4.5 11.25C4.5 11.4625 4.42813 11.6406 4.28438 11.7844C4.14062 11.9281 3.9625 12 3.75 12ZM9.75 12C9.5375 12 9.35938 11.9281 9.21563 11.7844C9.07188 11.6406 9 11.4625 9 11.25C9 11.0375 9.07188 10.8594 9.21563 10.7156C9.35938 10.5719 9.5375 10.5 9.75 10.5C9.9625 10.5 10.1406 10.5719 10.2844 10.7156C10.4281 10.8594 10.5 11.0375 10.5 11.25C10.5 11.4625 10.4281 11.6406 10.2844 11.7844C10.1406 11.9281 9.9625 12 9.75 12Z" fill="#9A99A2"/>
</svg>
