<svg width="5" height="10" viewBox="0 0 5 10" fill="none" xmlns="http://www.w3.org/2000/svg">
<path fill-rule="evenodd" clip-rule="evenodd" d="M0.634472 5.3247C0.548328 5.23855 0.5 5.12185 0.5 5.00008C0.5 4.87831 0.54841 4.76161 0.634472 4.67546C1.46332 3.84662 3.63924 1.6707 4.30416 1.00578C4.337 0.972933 4.38631 0.963152 4.42918 0.980919C4.47205 0.998686 4.5 1.0405 4.5 1.08687L4.5 2.61529C4.5 2.68701 4.47302 2.75604 4.42437 2.80876C4.08037 3.18203 2.66889 4.71346 2.4372 4.9648C2.41894 4.98469 2.41894 5.015 2.4372 5.03489C2.66889 5.28632 4.08037 6.81766 4.42437 7.19093C4.47294 7.24366 4.5 7.31269 4.5 7.38441L4.5 8.91283C4.5 8.9592 4.47205 9.00101 4.42918 9.01877C4.38631 9.03654 4.337 9.02668 4.30416 8.99392L0.634472 5.32423L0.634472 5.3247Z" fill="#808080"/>
</svg>
